# xmcd CD database file
#
# Track frame offsets:
#	150
#	10940
#	24240
#	42687
#	58277
#	74195
#	88882
#	103380
#	121852
#	141085
#	156422
#	171527
#	185532
#	202925
#	221397
#	238327
#	256992
#	269625
#	285875
#	301372
#
# Disc length: 4236 seconds
#
# Revision: 0
# Processed by: cddbd v1.5.2PL0 Copyright (c) Steve Scherf et al.
# Submitted via: CDex 1.70beta2
#
DISCID=3b108a14
DTITLE=Various Artist - 2 Stepping - Original Artists
DYEAR=1900
DGENRE=Country
TTITLE0=The First Step - Tracy Byrd
TTITLE1=Small Town Saturday Night - Hal Ketchum
TTITLE2=She's in Laove With The Boy - Trisha Yearwood
TTITLE3=This is Me Missing You - James House
TTITLE4=She Said Yes - Rhett Atkins
TTITLE5=More Where That Came From - Dolly Paron
TTITLE6=One More Last Chance - Vince Gill
TTITLE7=One Boy, One Girl - Collin Raye
TTITLE8=The Night The Lights Went Out in Georgia - Reba McEntire
TTITLE9=Cafe on the Corner - Cafe On the Corner
TTITLE10=You Can't Make a Heart Love Somebody - George Strait
TTITLE11=Doctor Time - Rick Trevino
TTITLE12=What a Crying Shame - The Mavericks
TTITLE13=You Don't Know Who I Am - Patty Loveless
TTITLE14=Dust on the Bottle - David Lee Murphy
TTITLE15=End of the Road - Troy Cassar-Daly
TTITLE16=Your Love is a Miracle - Mark Chestnutt
TTITLE17=Still Got a Couple of Good Years Left - Ricky Van Shelton
TTITLE18=Lead On - George Strait
TTITLE19=She'd Give Anything - Boy Howdy
EXTD=
EXTT0=
EXTT1=
EXTT2=
EXTT3=
EXTT4=
EXTT5=
EXTT6=
EXTT7=
EXTT8=
EXTT9=
EXTT10=
EXTT11=
EXTT12=
EXTT13=
EXTT14=
EXTT15=
EXTT16=
EXTT17=
EXTT18=
EXTT19=
PLAYORDER=
